<svg version="1.0" xmlns="http://www.w3.org/2000/svg" width="225.000000pt" height="225.000000pt" viewBox="0 0 225.000000 225.000000" preserveAspectRatio="xMidYMid meet">

<g transform="translate(0.000000,225.000000) scale(0.100000,-0.100000)" fill="#ffffff" stroke="none">
<path d="M695 2186 c-101 -37 -138 -166 -71 -249 14 -18 54 -67 89 -109 174 -212 256 -463 244 -748 -11 -252 -88 -460 -240 -645 -107 -131 -127 -163 -127 -206 0 -110 89 -184 197 -164 74 13 237 205 340 400 23 44 43 76 43 72 0 -4 -9 -25 -20 -47 -11 -22 -20 -44 -20 -49 0 -21 141 -220 204 -288 75 -80 131 -110 189 -99 78 15 137 84 137 161 0 46 -19 79 -117 199 -73 89 -130 184 -170 280 -49 121 -105 127 -136 16 -30 -106 -27 -62 3 55 120 465 6 947 -310 1314 -93 108 -154 136 -235 107z m140 -157 c167 -181 287 -426 330 -673 22 -131 20 -363 -5 -486 -23 -114 -68 -247 -115 -341 -77 -152 -234 -353 -285 -364 -30 -7 -70 25 -70 55 0 10 33 58 74 106 128 152 212 310 264 501 24 91 26 112 26 303 0 189 -2 212 -26 302 -51 188 -132 341 -265 499 -40 48 -73 93 -73 101 0 28 31 58 59 58 22 0 42 -14 86 -61z m359 -1438 c-9 -23 -18 -40 -20 -38 -2 2 4 22 13 45 9 23 18 40 20 38 2 -2 -4 -22 -13 -45z m230 -196 c17 -22 54 -68 83 -103 29 -34 53 -68 53 -75 0 -27 -31 -57 -60 -57 -36 0 -104 69 -196 196 l-61 86 30 73 31 74 44 -77 c25 -42 59 -95 76 -117z" fill="#ffffff"/>
<path d="M1432 2173 c-66 -32 -270 -285 -288 -358 -4 -15 6 -51 29 -101 19 -44 44 -110 57 -149 27 -85 48 -110 83 -101 18 4 31 19 44 49 57 135 135 262 222 360 70 80 84 110 79 167 -6 60 -39 107 -92 131 -50 23 -91 24 -134 2z m103 -108 c14 -13 25 -31 25 -39 0 -8 -24 -43 -53 -78 -83 -99 -111 -138 -157 -218 -26 -44 -45 -68 -48 -60 -2 8 -16 41 -30 73 l-25 57 35 53 c87 130 184 235 221 237 4 0 19 -11 32 -25z" fill="#ffffff"/>
<path d="M402 1903 c-41 -20 -69 -54 -83 -103 -18 -61 -5 -98 66 -185 81 -98 150 -234 171 -335 23 -108 15 -271 -19 -373 -30 -91 -86 -189 -157 -272 -28 -33 -56 -76 -62 -97 -30 -100 48 -198 157 -198 59 0 89 16 151 82 94 100 170 229 217 368 43 129 51 187 50 345 -1 127 -5 165 -27 250 -50 195 -204 448 -309 509 -51 30 -106 33 -155 9z m122 -114 c86 -75 181 -235 231 -389 24 -73 28 -106 33 -238 4 -131 2 -165 -17 -245 -37 -160 -118 -315 -224 -430 -47 -50 -82 -60 -111 -31 -27 27 -19 63 28 117 100 119 172 263 196 396 6 35 11 110 11 167 0 194 -64 372 -188 521 -62 75 -67 83 -64 113 3 18 38 50 57 50 7 0 29 -14 48 -31z" fill="#ffffff"/>
<path d="M1702 1893 c-38 -19 -108 -94 -164 -177 -264 -387 -244 -890 49 -1258 72 -91 112 -120 173 -126 61 -6 101 10 140 54 59 68 50 146 -29 241 -79 95 -126 176 -157 270 -26 80 -29 100 -29 223 1 101 6 150 19 195 27 90 88 201 155 283 68 83 86 127 76 180 -19 104 -137 163 -233 115z m117 -109 c12 -15 21 -30 21 -35 0 -4 -16 -27 -35 -51 -90 -112 -153 -220 -185 -315 -30 -87 -34 -113 -38 -233 -3 -113 -1 -150 17 -225 28 -118 84 -229 171 -339 38 -48 70 -91 70 -96 0 -19 -44 -60 -64 -60 -26 0 -101 75 -155 153 -46 68 -115 219 -137 302 -27 99 -27 382 -1 470 47 159 121 296 212 392 67 70 92 78 124 37z" fill="#ffffff"/>
<path d="M109 1617 c-43 -28 -69 -80 -69 -135 0 -50 6 -63 65 -144 59 -79 79 -142 73 -232 -5 -77 -35 -149 -87 -208 -42 -49 -51 -71 -51 -126 0 -122 131 -200 235 -140 80 47 175 194 211 329 23 84 23 243 1 329 -35 135 -138 294 -218 335 -43 23 -120 19 -160 -8z m157 -123 c86 -94 134 -224 134 -364 0 -147 -49 -277 -139 -371 -41 -42 -53 -50 -73 -44 -59 18 -62 61 -8 129 21 29 52 79 67 111 26 55 28 70 28 175 0 133 -16 180 -92 278 -46 60 -52 85 -26 114 28 31 62 22 109 -28z" fill="#ffffff"/>
<path d="M2001 1629 c-81 -24 -206 -209 -242 -359 -19 -77 -16 -241 5 -320 42 -155 159 -317 246 -340 105 -28 200 48 200 160 0 47 -10 68 -56 126 -19 22 -45 66 -60 98 -23 52 -26 67 -22 140 5 88 25 139 83 211 47 58 55 78 55 133 0 106 -105 182 -209 151z m91 -116 c27 -24 22 -51 -21 -107 -75 -99 -94 -149 -99 -263 -5 -127 17 -200 89 -295 52 -68 58 -91 32 -120 -41 -45 -98 -8 -168 107 -54 90 -76 173 -76 285 0 112 22 195 76 285 69 114 122 149 167 108z" fill="#ffffff"/>
</g>
</svg>